<svg xmlns="http://www.w3.org/2000/svg"><symbol id="whatsapp" viewBox="0 0 24 24"><path d="m19.794,4.197c-2.068-2.061-4.818-3.196-7.748-3.197C6.008,1,1.094,5.89,1.092,11.901c-.001,1.921.504,3.797,1.462,5.45l-1.554,5.649,5.807-1.516c1.6.869,3.401,1.326,5.234,1.327h.005c6.037,0,10.952-4.891,10.954-10.901.001-2.913-1.137-5.652-3.206-7.712h0Zm-7.748,16.773h-.004c-1.633,0-3.236-.438-4.634-1.263l-.332-.197-3.446.9.92-3.344-.216-.343c-.911-1.443-1.393-3.11-1.392-4.822.002-4.996,4.086-9.06,9.109-9.06,2.432.001,4.718.945,6.437,2.657,1.719,1.712,2.665,3.989,2.664,6.41-.002,4.996-4.086,9.061-9.104,9.061h0Zm4.994-6.786c-.274-.136-1.619-.795-1.87-.886-.251-.091-.433-.136-.616.136-.182.273-.707.887-.867,1.068-.16.182-.319.204-.593.068-.274-.136-1.155-.424-2.201-1.352-.814-.722-1.363-1.614-1.523-1.887-.16-.273-.017-.42.12-.556.123-.122.274-.318.411-.477.137-.159.182-.273.274-.454.091-.182.046-.341-.023-.477-.068-.136-.616-1.477-.844-2.022-.222-.531-.448-.459-.616-.468-.16-.008-.342-.009-.525-.009s-.479.068-.73.341c-.251.273-.958.932-.958,2.272s.981,2.636,1.118,2.818c.137.182,1.93,2.933,4.676,4.113.653.281,1.163.448,1.56.574.656.208,1.252.178,1.724.108.526-.078,1.619-.659,1.847-1.295.228-.636.228-1.182.16-1.295s-.251-.182-.525-.318h0Z" /></symbol><symbol id="telegram" viewBox="0 0 24 24"><path d="m2.511,10.749c5.907-2.54,9.844-4.215,11.816-5.024,5.625-2.31,6.794-2.712,7.557-2.725.167-.003.542.038.785.233.203.164.261.386.288.542s.061.51.033.787c-.306,3.163-1.624,10.837-2.296,14.379-.282,1.499-.842,2.001-1.384,2.05-1.175.107-2.069-.767-3.208-1.504-1.784-1.154-2.79-1.872-4.522-2.998-1.999-1.301-.703-2.017.436-3.185.3-.306,5.483-4.961,5.582-5.383.012-.053.024-.25-.094-.353-.118-.104-.294-.068-.418-.04-.179.04-3.029,1.899-8.545,5.576-.809.548-1.542.815-2.199.801-.724-.015-2.114-.404-3.147-.736-1.269-.407-2.278-.622-2.19-1.314.045-.36.548-.728,1.505-1.105Z" /></symbol><symbol id="facebook" viewBox="0 0 24 24"><path d="M23,12.04C23,5.943,18.075,1,12,1S1,5.943,1,12.04c0,5.178,3.551,9.522,8.343,10.715v-7.342H7.074V12.04h2.268v-1.454c0-3.758,1.694-5.5,5.37-5.5c0.697,0,1.899,0.137,2.391,0.274V8.42c-0.26-0.027-0.711-0.041-1.271-0.041c-1.804,0-2.501,0.686-2.501,2.469v1.193h3.593l-0.617,3.374h-2.976V23C18.779,22.34,23,17.685,23,12.04z"/></symbol><symbol id="messenger" viewBox="0 0 24 24"><path d="m12,1C5.804,1,1,5.54,1,11.67c0,3.206,1.314,5.978,3.454,7.892.179.159.289.385.294.627l.061,1.958c.015.486.421.868.906.853.113-.003.225-.029.328-.074l2.183-.962c.184-.082.393-.096.589-.044,1.004.275,2.071.423,3.184.423,6.196,0,11-4.54,11-10.67S18.196,1,12,1Zm6.608,8.211l-3.234,5.123c-.486.771-1.504,1.002-2.276.517-.038-.024-.075-.05-.111-.077l-2.571-1.928c-.236-.177-.56-.175-.795.003l-3.471,2.634c-.462.352-1.067-.201-.756-.693h0l3.231-5.126c.486-.771,1.504-1.002,2.276-.517.038.024.075.05.111.077l2.571,1.928c.236.177.56.175.795-.003l3.47-2.634c.462-.352,1.067.203.759.696Z" /></symbol><symbol id="reddit" viewBox="0 0 24 24"><path d="m23,12.15c-.049-1.361-1.167-2.425-2.498-2.375-.592.022-1.155.266-1.582.685-1.879-1.307-4.087-2.028-6.359-2.078l1.074-5.271,3.534.76c.098.928.912,1.599,1.819,1.499.907-.1,1.563-.933,1.465-1.861-.098-.928-.912-1.599-1.819-1.499-.522.057-.987.366-1.251.83l-4.046-.828c-.276-.062-.549.117-.61.399,0,.002,0,.004-.001.006l-1.222,5.863c-2.299.035-4.538.758-6.441,2.078-.97-.934-2.496-.886-3.409.106-.913.992-.866,2.553.104,3.487.19.183.408.333.646.445-.019.247-.019.496,0,.743,0,3.785,4.311,6.86,9.629,6.86s9.629-3.075,9.629-6.86c.019-.247.019-.496,0-.743.832-.423,1.352-1.297,1.338-2.247Zm-16.516,1.69c0-.933.739-1.69,1.652-1.69s1.652.756,1.652,1.69-.739,1.69-1.652,1.69-1.652-.756-1.652-1.69Zm9.596,4.646c-1.172.903-2.613,1.363-4.079,1.301-1.466.062-2.908-.398-4.079-1.301-.156-.195-.129-.482.062-.642.164-.138.401-.138.566,0,.993.745,2.205,1.121,3.435,1.064,1.232.069,2.449-.295,3.452-1.031.182-.182.475-.178.652.008.178.187.174.485-.008.667h0v-.068Zm-.297-2.889c-.912,0-1.652-.756-1.652-1.69s.739-1.69,1.652-1.69,1.652.756,1.652,1.69c.037.932-.673,1.719-1.584,1.756-.028.001-.056.002-.084.001l.017-.068Z" /></symbol><symbol id="linkedin" viewBox="0 0 24 24"><path d="m6.526,22H2.396v-13.333h4.13v13.333Zm-2.084-15.08c-1.349,0-2.442-1.101-2.442-2.46s1.093-2.46,2.442-2.46,2.442,1.102,2.442,2.46c0,1.359-1.094,2.46-2.442,2.46Zm17.558,15.08h-4.109v-6.999c0-1.919-.73-2.991-2.249-2.991-1.652,0-2.515,1.116-2.515,2.991v6.999h-3.96v-13.333h3.96v1.796s1.191-2.202,4.02-2.202,4.853,1.727,4.853,5.298c0,3.57,0,8.441,0,8.441Z" /></symbol><symbol id="pinterest" viewBox="0 0 24 24"><path d="m1,12c0,4.696,2.943,8.706,7.086,10.283-.101-.859-.208-2.275.023-3.269.199-.854,1.284-5.443,1.284-5.443,0,0-.327-.655-.327-1.626,0-1.522.882-2.658,1.981-2.658.935,0,1.386.701,1.386,1.542,0,.94-.599,2.344-.907,3.646-.258,1.09.547,1.979,1.622,1.979,1.946,0,3.443-2.052,3.443-5.015,0-2.623-1.885-4.455-4.575-4.455-3.115,0-4.944,2.337-4.944,4.752,0,.941.362,1.95.815,2.499.079.084.107.204.076.314-.083.347-.269,1.09-.304,1.242-.049.2-.159.243-.367.146-1.368-.636-2.222-2.635-2.222-4.241,0-3.455,2.509-6.627,7.234-6.627,3.799,0,6.751,2.707,6.751,6.324,0,3.774-2.379,6.812-5.682,6.812-1.11,0-2.152-.577-2.51-1.259,0,0-.549,2.092-.682,2.603-.258.994-.975,2.251-1.42,2.965,1.025.315,2.112.485,3.24.485,6.075,0,11-4.925,11-11S18.075,1,12,1,1,5.925,1,12" /></symbol><symbol id="twitter" viewBox="0 0 24 24"><path d="m14.093,10.315L22.283,1h-1.941l-7.111,8.089L7.551,1H1l8.589,12.231L1,23h1.941l7.51-8.542,5.998,8.542h6.551l-8.907-12.685h0Zm-2.658,3.024l-.87-1.218L3.64,2.43h2.981l5.588,7.821.87,1.218,7.264,10.166h-2.981l-5.927-8.296h0Z" /></symbol><symbol id="email" viewBox="0 0 24 24"><path d="m23,6.977v10.648c0,1.787-1.362,3.265-3.106,3.369l-.194.006H4.3c-1.747,0-3.192-1.393-3.294-3.177l-.006-.198V6.977l10.389,7.084.128.074c.305.152.661.152.966,0l.128-.074s10.389-7.084,10.389-7.084Zm-3.3-3.977c1.188,0,2.23.641,2.811,1.605l-10.511,7.166L1.489,4.605c.56-.93,1.524-1.525,2.589-1.598l.221-.008h15.4Z" /></symbol><symbol id="clipboard" viewBox="0 0 24 24"><path d="m18.885,7.246h-2.132s0,0,0,0v-2.131c0-1.717-1.398-3.115-3.115-3.115H5.115c-1.717,0-3.115,1.397-3.115,3.115v8.524c0,1.717,1.397,3.115,3.115,3.115h2.131s0,0,0,0v2.132c0,1.717,1.398,3.115,3.115,3.115h8.524c1.717,0,3.115-1.397,3.115-3.115v-8.524c0-1.717-1.397-3.115-3.115-3.115Zm-11.64,7.54h-2.131c-.633,0-1.147-.515-1.147-1.148V5.115c0-.633.515-1.147,1.147-1.147h8.524c.633,0,1.148.515,1.148,1.147v2.131s0,0,0,0h-4.426c-1.717,0-3.115,1.398-3.115,3.115v4.426s0,0,0,0Zm12.787,4.099c0,.633-.515,1.147-1.147,1.147h-8.524c-.633,0-1.148-.515-1.148-1.147v-8.524c0-.633.515-1.148,1.148-1.148h8.524c.633,0,1.147.515,1.147,1.148v8.524Z" /></symbol></svg>